<?xml version="1.0" encoding="UTF-8" standalone="no"?>
<!-- Created with Inkscape (http://www.inkscape.org/) -->

<svg
   version="1.1"
   id="svg1"
   width="559.87018"
   height="748.44482"
   viewBox="0 0 559.87018 748.44482"
   xmlns="http://www.w3.org/2000/svg"
   xmlns:svg="http://www.w3.org/2000/svg">
  <defs
     id="defs1" />
  <g
     id="g1"
     transform="translate(-1.5010692,0.90927232)">
    <path
       style="fill:#000000"
       d="m 9.8229235,745.05153 c -14.40275,-37.29392 -13.09299,-43.43128 28.0231795,-131.31228 36.24037,-77.45956 35.24014,-74.47755 33.31868,-99.33333 -4.12048,-53.30224 0.195,-79.347 20.15053,-121.61244 8.0147,-16.975 8.38412,-16.71077 9.710767,6.94578 1.14195,20.36284 3.15157,29.91331 3.36674,16 1.10217,-71.26765 60.91265,-199.78518 121.84501,-261.81399 12.93914,-13.17198 28.44872,-25.51934 32.05496,-25.51934 0.33733,0 -1.18584,5.55 -3.38484,12.33333 -10.97449,33.85349 -10.41157,47.5427 1.15209,28.01709 C 317.41097,65.163388 425.98091,-0.99620557 534.48645,-0.90918657 c 30.73918,0.02465 30.30463,-0.14602103 22.20171,8.71986967 C 545.81008,19.713028 539.51942,31.181797 511.77309,89.697193 473.81638,169.74566 460.20302,184.31301 385.1881,225.15285 c -44.7214,24.34736 -52.73257,29.11488 -46.66667,27.77175 10.74281,-2.37871 73.70732,-26.66705 93.28141,-35.98298 11.81997,-5.6255 11.74285,-6.08529 1.9604,11.6879 -61.61687,111.94818 -84.57749,134.3586 -165.83138,161.8576 -11.77573,3.9853 -19.82611,7.24738 -17.88972,7.24907 9.22181,0.008 61.91525,-16.49269 90.84193,-28.44678 7.86722,-3.25116 14.30403,-5.49818 14.30403,-4.99337 0,4.80173 -35.54381,53.60582 -51.54625,70.77655 -36.14828,38.78734 -62.23349,55.98742 -121.65901,80.21962 -29.73235,12.12409 -43.79394,19.12061 -54.98278,27.35736 -9.63045,7.08954 -9.66265,7.76698 0.91598,-19.27003 62.10673,-158.73308 176.89153,-326.14998 287.63789,-419.52801 12.52393,-10.559819 7.59068,-8.584955 -6.60836,2.64543 -154.41542,122.1311 -297.13442,351.98631 -353.861187,569.90895 -4.33845,16.66667 -4.33845,16.66667 -15.922,28.66667 -12.96563,13.43177 -17.14506,19.48596 -23.45688,33.97895 -4.34593,9.97896 -4.34593,9.97896 -5.8825795,6 z"
       id="path1" />
  </g>
</svg>
